<svg width="75" height="75" viewBox="0 0 75 75" fill="none" xmlns="http://www.w3.org/2000/svg">
<path d="M46.2053 48.2143C47.8037 48.2143 49.3367 48.8493 50.4669 49.9795C51.5972 51.1097 52.2321 52.6427 52.2321 54.2411V58.2643L52.2107 58.5536C51.3803 64.2509 46.2643 66.9884 37.6794 66.9884C29.1268 66.9884 23.9277 64.283 22.8053 58.6527L22.7678 58.2589V54.2411C22.7678 52.6427 23.4028 51.1097 24.533 49.9795C25.6633 48.8493 27.1962 48.2143 28.7946 48.2143H46.2053ZM46.2053 52.2322H28.7946C28.2618 52.2322 27.7508 52.4438 27.3741 52.8206C26.9973 53.1973 26.7857 53.7083 26.7857 54.2411V58.0447C27.5357 61.2589 30.9375 62.9705 37.6794 62.9705C44.4187 62.9705 47.6705 61.2804 48.2143 58.1063V54.2411C48.2143 53.7083 48.0026 53.1973 47.6259 52.8206C47.2491 52.4438 46.7381 52.2322 46.2053 52.2322ZM48.8678 32.1402L63.616 32.1429C65.2145 32.1429 66.7474 32.7778 67.8776 33.9081C69.0079 35.0383 69.6428 36.5712 69.6428 38.1697V42.1929L69.6214 42.4822C68.791 48.1795 63.675 50.917 55.0902 50.917L54.2464 50.9089C53.4555 49.0023 52.0137 47.438 50.1777 46.4947C51.5571 46.7625 53.191 46.8991 55.0902 46.8991C61.8294 46.8991 65.0812 45.2089 65.625 42.0348V38.1697C65.625 37.6369 65.4133 37.1259 65.0366 36.7491C64.6598 36.3724 64.1488 36.1607 63.616 36.1607H49.5535C49.5535 34.7518 49.3125 33.3964 48.8678 32.1402ZM11.3839 32.1429L26.1321 32.1402C25.7539 33.2102 25.5293 34.3285 25.4652 35.4616L25.4464 36.1607H11.3839C10.8511 36.1607 10.3401 36.3724 9.96338 36.7491C9.58663 37.1259 9.37497 37.6369 9.37497 38.1697V41.9732C10.125 45.1875 13.5268 46.8991 20.2687 46.8991C21.9348 46.8991 23.3866 46.7947 24.6402 46.5911C22.8869 47.5438 21.5132 49.0687 20.7482 50.9116L20.266 50.917C11.716 50.917 6.51694 48.2116 5.39462 42.5813L5.35712 42.1875V38.1697C5.35712 36.5712 5.99208 35.0383 7.12232 33.9081C8.25256 32.7778 9.7855 32.1429 11.3839 32.1429ZM37.5 26.7857C39.9864 26.7857 42.3709 27.7734 44.1291 29.5316C45.8873 31.2898 46.875 33.6743 46.875 36.1607C46.875 38.6471 45.8873 41.0317 44.1291 42.7898C42.3709 44.548 39.9864 45.5357 37.5 45.5357C35.0136 45.5357 32.629 44.548 30.8708 42.7898C29.1127 41.0317 28.125 38.6471 28.125 36.1607C28.125 33.6743 29.1127 31.2898 30.8708 29.5316C32.629 27.7734 35.0136 26.7857 37.5 26.7857ZM37.5 30.8036C36.0792 30.8036 34.7166 31.368 33.7119 32.3727C32.7072 33.3773 32.1428 34.7399 32.1428 36.1607C32.1428 37.5815 32.7072 38.9441 33.7119 39.9488C34.7166 40.9535 36.0792 41.5179 37.5 41.5179C38.9208 41.5179 40.2834 40.9535 41.288 39.9488C42.2927 38.9441 42.8571 37.5815 42.8571 36.1607C42.8571 34.7399 42.2927 33.3773 41.288 32.3727C40.2834 31.368 38.9208 30.8036 37.5 30.8036ZM54.9107 10.7143C57.3971 10.7143 59.7817 11.702 61.5398 13.4602C63.298 15.2183 64.2857 17.6029 64.2857 20.0893C64.2857 22.5757 63.298 24.9603 61.5398 26.7184C59.7817 28.4766 57.3971 29.4643 54.9107 29.4643C52.4243 29.4643 50.0397 28.4766 48.2816 26.7184C46.5234 24.9603 45.5357 22.5757 45.5357 20.0893C45.5357 17.6029 46.5234 15.2183 48.2816 13.4602C50.0397 11.702 52.4243 10.7143 54.9107 10.7143ZM20.0893 10.7143C22.5757 10.7143 24.9602 11.702 26.7184 13.4602C28.4765 15.2183 29.4643 17.6029 29.4643 20.0893C29.4643 22.5757 28.4765 24.9603 26.7184 26.7184C24.9602 28.4766 22.5757 29.4643 20.0893 29.4643C17.6029 29.4643 15.2183 28.4766 13.4601 26.7184C11.702 24.9603 10.7143 22.5757 10.7143 20.0893C10.7143 17.6029 11.702 15.2183 13.4601 13.4602C15.2183 11.702 17.6029 10.7143 20.0893 10.7143ZM54.9107 14.7322C53.4899 14.7322 52.1273 15.2966 51.1226 16.3012C50.118 17.3059 49.5535 18.6685 49.5535 20.0893C49.5535 21.5101 50.118 22.8727 51.1226 23.8774C52.1273 24.882 53.4899 25.4464 54.9107 25.4464C56.3315 25.4464 57.6941 24.882 58.6988 23.8774C59.7034 22.8727 60.2678 21.5101 60.2678 20.0893C60.2678 18.6685 59.7034 17.3059 58.6988 16.3012C57.6941 15.2966 56.3315 14.7322 54.9107 14.7322ZM20.0893 14.7322C18.6685 14.7322 17.3058 15.2966 16.3012 16.3012C15.2965 17.3059 14.7321 18.6685 14.7321 20.0893C14.7321 21.5101 15.2965 22.8727 16.3012 23.8774C17.3058 24.882 18.6685 25.4464 20.0893 25.4464C21.5101 25.4464 22.8727 24.882 23.8773 23.8774C24.882 22.8727 25.4464 21.5101 25.4464 20.0893C25.4464 18.6685 24.882 17.3059 23.8773 16.3012C22.8727 15.2966 21.5101 14.7322 20.0893 14.7322Z" fill="#F8DBDB"/>
</svg>
