<svg width="75" height="75" viewBox="0 0 75 75" fill="none" xmlns="http://www.w3.org/2000/svg">
<path d="M60.9375 30.4688C63.423 30.4656 65.8057 29.4769 67.5632 27.7194C69.3207 25.962 70.3094 23.5792 70.3125 21.0938V14.0625H63.2812C60.8816 14.066 58.5756 14.9945 56.843 16.6547C55.6288 14.4516 53.8463 12.6143 51.681 11.334C49.5157 10.0537 47.0467 9.37722 44.5312 9.375H37.5V16.4062C37.5043 20.1345 38.9873 23.7089 41.6236 26.3451C44.2599 28.9814 47.8342 30.4644 51.5625 30.4688H53.9062V60.9375H25.7812V49.2188H28.125C30.6105 49.2156 32.9932 48.2269 34.7507 46.4695C36.5082 44.712 37.4969 42.3292 37.5 39.8438V32.8125H30.4688C28.0691 32.816 25.7631 33.7445 24.0305 35.4047C22.8163 33.2016 21.0338 31.3643 18.8685 30.084C16.7032 28.8037 14.2342 28.1272 11.7188 28.125H4.6875V35.1562C4.69184 38.8845 6.17482 42.4589 8.81111 45.0951C11.4474 47.7314 15.0217 49.2144 18.75 49.2188H21.0938V60.9375H4.6875V65.625H70.3125V60.9375H58.5938V30.4688H60.9375ZM58.5938 23.4375C58.595 22.1947 59.0892 21.0031 59.9681 20.1243C60.8469 19.2455 62.0384 18.7512 63.2812 18.75H65.625V21.0938C65.6238 22.3366 65.1295 23.5281 64.2507 24.4069C63.3719 25.2857 62.1803 25.78 60.9375 25.7812H58.5938V23.4375ZM25.7812 42.1875C25.7825 40.9447 26.2768 39.7531 27.1556 38.8743C28.0344 37.9955 29.2259 37.5012 30.4688 37.5H32.8125V39.8438C32.8113 41.0866 32.317 42.2781 31.4382 43.1569C30.5594 44.0358 29.3678 44.53 28.125 44.5312H25.7812V42.1875ZM21.0938 44.5312H18.75C16.2645 44.5281 13.8818 43.5394 12.1243 41.782C10.3668 40.0245 9.3781 37.6417 9.375 35.1562V32.8125H11.7188C14.2042 32.8156 16.587 33.8043 18.3445 35.5618C20.1019 37.3193 21.0906 39.702 21.0938 42.1875V44.5312ZM53.9062 25.7812H51.5625C49.077 25.7781 46.6943 24.7894 44.9368 23.0319C43.1793 21.2745 42.1906 18.8917 42.1875 16.4062V14.0625H44.5312C47.0167 14.0656 49.3995 15.0543 51.157 16.8118C52.9144 18.5693 53.9031 20.952 53.9062 23.4375V25.7812Z" fill="#F8DBDB"/>
</svg>
