<svg width="74" height="74" viewBox="0 0 74 74" fill="none" xmlns="http://www.w3.org/2000/svg">
<path d="M39.1799 54.8617C41.7299 57.4117 44.0763 58.5833 46.25 58.5833C47.4155 58.5833 48.3467 58.3768 50.0641 57.7323L51.2728 57.2637C54.5103 55.9625 56.1444 55.5 58.5834 55.5C62.3265 55.5 65.9186 57.1804 69.3319 60.3717L70.0133 61.0284L65.6534 65.3883C63.1035 62.8383 60.7571 61.6667 58.5834 61.6667C57.4179 61.6667 56.4867 61.8732 54.7693 62.5177L53.5606 62.9863C50.3231 64.2844 48.6889 64.75 46.25 64.75C42.5069 64.75 38.9148 63.0696 35.5015 59.8783L34.8201 59.2216L39.1799 54.8617ZM27.75 9.25C27.75 11.7033 28.7246 14.056 30.4593 15.7907C32.194 17.5254 34.5468 18.5 37 18.5C39.4533 18.5 41.806 17.5254 43.5408 15.7907C45.2755 14.056 46.25 11.7033 46.25 9.25H64.75C65.5678 9.25 66.352 9.57485 66.9303 10.1531C67.5085 10.7313 67.8334 11.5156 67.8334 12.3333V33.9167C67.8334 34.7344 67.5085 35.5187 66.9303 36.0969C66.352 36.6751 65.5678 37 64.75 37H52.4105V30.8333L61.6667 30.8302V15.4136H51.1309L51.0785 15.54C49.9092 18.1542 48.0351 20.3912 45.6662 22.0005C43.2973 23.6097 40.5271 24.5275 37.666 24.6512L37 24.6667C34.0227 24.6669 31.1091 23.8053 28.6108 22.1857C26.1126 20.5662 24.1366 18.258 22.9215 15.54L22.866 15.4167H12.3334V30.8333L21.5803 30.8302V58.5833H30.8334V64.75H18.5C17.6823 64.75 16.898 64.4252 16.3198 63.8469C15.7415 63.2687 15.4167 62.4844 15.4167 61.6667L15.4136 36.9969L9.25002 37C8.43227 37 7.64801 36.6751 7.06977 36.0969C6.49154 35.5187 6.16669 34.7344 6.16669 33.9167V12.3333C6.16669 11.5156 6.49154 10.7313 7.06977 10.1531C7.64801 9.57485 8.43227 9.25 9.25002 9.25H27.75ZM39.1799 42.5284C41.7299 45.0783 44.0763 46.25 46.25 46.25C47.4155 46.25 48.3467 46.0434 50.0641 45.399L51.2728 44.9303C54.5103 43.6292 56.1444 43.1667 58.5834 43.1667C62.3265 43.1667 65.9186 44.8471 69.3319 48.0383L70.0133 48.6951L65.6534 53.0549C63.1035 50.505 60.7571 49.3333 58.5834 49.3333C57.4179 49.3333 56.4867 49.5399 54.7693 50.1843L53.5606 50.653C50.3231 51.9511 48.6889 52.4167 46.25 52.4167C42.5069 52.4167 38.9148 50.7362 35.5015 47.545L34.8201 46.8882L39.1799 42.5284Z" fill="#F8DBDB"/>
</svg>
